<?xml version="1.0" encoding="UTF-8" standalone="no"?>
<!DOCTYPE svg PUBLIC "-//W3C//DTD SVG 1.1//EN" "http://www.w3.org/Graphics/SVG/1.1/DTD/svg11.dtd">
<svg width="100%" height="100%" viewBox="0 0 2048 2048" version="1.1" xmlns="http://www.w3.org/2000/svg" xmlns:xlink="http://www.w3.org/1999/xlink" xml:space="preserve" xmlns:serif="http://www.serif.com/" style="fill-rule:evenodd;clip-rule:evenodd;stroke-linejoin:round;stroke-miterlimit:2;">
    <g transform="matrix(0.157512,0,0,-0.157512,-623.531,3153.54)">
        <g transform="matrix(1,0,0,1,0,1765.91)">
            <path d="M10412,18013C10322,17797 9932,17011 9797,16773C9771,16728 9750,16689 9750,16686C9750,16684 9730,16647 9705,16606C9680,16564 9660,16527 9660,16525C9660,16522 9648,16501 9633,16477C9618,16454 9601,16426 9595,16415C9566,16363 9530,16300 9499,16250C9414,16109 9285,15904 9211,15790C9166,15721 9124,15654 9116,15640C9096,15605 8921,15352 8752,15115C8712,15060 8674,15007 8668,14997C8651,14973 8413,14649 8397,14630C8390,14622 8362,14584 8335,14545C8254,14431 8229,14397 8145,14287C8101,14229 8058,14172 8050,14160C8042,14148 7996,14087 7949,14024C7901,13961 7854,13898 7844,13884C7833,13870 7780,13799 7726,13727C7474,13393 7005,12718 6855,12475C6690,12208 6616,11976 6603,11688C6588,11346 6677,11092 6882,10893C7030,10750 7203,10669 7428,10639C7544,10624 7668,10634 7879,10676C8152,10731 8215,10740 8371,10740C8634,10740 8830,10683 9034,10545C9325,10349 9513,10046 9536,9732C9551,9545 9510,9349 9384,9001C9365,8950 9341,8863 9330,8808C9264,8478 9368,8118 9592,7904C9770,7732 9909,7658 10290,7529C10605,7422 10737,7350 10887,7207C11061,7040 11174,6827 11216,6585C11240,6454 11230,6237 11196,6112C11125,5854 11013,5666 10821,5483C10780,5443 10748,5409 10751,5406C10753,5403 10812,5405 10882,5410C11545,5457 12211,5666 12795,6010C13376,6352 13881,6817 14261,7360C14355,7494 14520,7770 14534,7816C14540,7837 14540,7837 14488,7824C14374,7794 14220,7814 14105,7873C14016,7919 13895,8045 13842,8146C13754,8316 13706,8511 13655,8903C13602,9308 13576,9457 13529,9625C13427,9987 13229,10301 13020,10434C12876,10526 12762,10558 12478,10585C12094,10622 11928,10661 11718,10765C11516,10865 11308,11056 11176,11262C11099,11383 11036,11529 10998,11670C10973,11767 10963,12000 10979,12125C11021,12449 11231,12787 11553,13047C11625,13105 11741,13201 11750,13210C11753,13213 11777,13233 11805,13255C11909,13338 12035,13477 12124,13607C12201,13718 12291,13923 12323,14060C12358,14204 12363,14252 12363,14410C12363,14679 12316,14848 12165,15115C12153,15137 12060,15280 12048,15295C12044,15301 12030,15319 12017,15335C11962,15407 11520,16082 11520,16095C11520,16097 11503,16125 11482,16157C11386,16302 11203,16620 11050,16905C11030,16944 10991,17016 10965,17065C10850,17280 10666,17657 10538,17940C10500,18025 10465,18099 10461,18103C10456,18107 10435,18067 10412,18013Z" style="fill:url(#_Radial1);fill-rule:nonzero;"/>
        </g>
        <g transform="matrix(1,0,0,1,0,1765.91)">
            <path d="M12660,14339C12660,14050 12554,13719 12373,13445C12252,13262 12159,13166 11867,12921C11599,12698 11489,12581 11390,12415C11257,12195 11228,11914 11311,11666C11369,11493 11448,11367 11587,11227C11807,11007 12036,10920 12505,10879C12790,10855 12921,10824 13082,10742C13201,10681 13273,10626 13376,10518C13501,10385 13638,10170 13714,9985C13730,9947 13748,9902 13755,9885C13787,9807 13809,9735 13849,9565C13879,9443 13896,9331 13934,9029C13995,8551 14048,8349 14150,8214C14233,8104 14375,8075 14509,8141C14603,8187 14716,8303 14763,8401C14829,8539 14910,8861 14955,9165C15103,10153 14861,11222 14278,12155C14118,12411 13758,12946 13628,13120C13581,13183 13508,13285 13464,13345C13328,13534 12690,14393 12669,14415C12664,14420 12660,14391 12660,14339Z" style="fill:url(#_Radial2);fill-rule:nonzero;"/>
        </g>
        <g transform="matrix(1,0,0,1,0,1765.91)">
            <path d="M6272,11487C6037,10862 5942,10422 5924,9871C5893,8923 6214,7959 6821,7183C6959,7007 7018,6940 7174,6780C7887,6050 8754,5603 9760,5446C9957,5415 10077,5408 10140,5424C10400,5491 10655,5678 10788,5900C10810,5937 10843,6001 10859,6040C11000,6372 10940,6739 10705,6974C10586,7093 10482,7147 10155,7260C9901,7348 9799,7392 9682,7464C9440,7614 9293,7761 9170,7975C8976,8315 8961,8721 9125,9165C9205,9379 9231,9486 9237,9617C9242,9714 9239,9754 9225,9812C9171,10036 8982,10254 8747,10366C8554,10457 8373,10468 8060,10406C7765,10348 7667,10337 7490,10343C7281,10351 7160,10381 6977,10471C6690,10612 6487,10841 6380,11145C6342,11255 6310,11411 6310,11491C6310,11523 6307,11550 6303,11550C6298,11550 6284,11522 6272,11487Z" style="fill:url(#_Radial3);fill-rule:nonzero;"/>
        </g>
    </g>
    <defs>
        <radialGradient id="_Radial1" cx="0" cy="0" r="1" gradientUnits="userSpaceOnUse" gradientTransform="matrix(3967.64,0,0,6349.34,10569,11753.9)"><stop offset="0" style="stop-color:white;stop-opacity:1"/><stop offset="1" style="stop-color:rgb(201,201,201);stop-opacity:1"/></radialGradient>
        <radialGradient id="_Radial2" cx="0" cy="0" r="1" gradientUnits="userSpaceOnUse" gradientTransform="matrix(3733.01,0,0,6309.56,11264.5,11260.8)"><stop offset="0" style="stop-color:rgb(229,176,0);stop-opacity:1"/><stop offset="0.47" style="stop-color:rgb(172,115,0);stop-opacity:1"/><stop offset="1" style="stop-color:rgb(156,98,0);stop-opacity:1"/></radialGradient>
        <radialGradient id="_Radial3" cx="0" cy="0" r="1" gradientUnits="userSpaceOnUse" gradientTransform="matrix(5012.4,0,0,6134.31,5921.95,8482.85)"><stop offset="0" style="stop-color:rgb(218,152,0);stop-opacity:1"/><stop offset="0.53" style="stop-color:rgb(173,113,0);stop-opacity:1"/><stop offset="1" style="stop-color:rgb(156,98,0);stop-opacity:1"/></radialGradient>
    </defs>
</svg>
